# xmcd
#
# Track frame offsets:
# 150
# 41673
# 74709
# 110217
# 147937
# 174400
# 200953
# 238507
#
# Disc length: 3457 seconds
#
#
# Revision: 0
# Processed by: cddbd v1.5.2PL0 Copyright (c) Steve Scherf et al.
# Submitted via: Nero 7, 11, 10, 0 
#
DISCID=800d7f08
DTITLE=Andy Just - Smokin' Tracks - Live At Muddy Waters [CD1]
DYEAR=2010
DGENRE=Blues
TTITLE0=Screamin'
TTITLE1=Talk Is Cheap
TTITLE2=I Can't Hold Out
TTITLE3=Lovin' Cup
TTITLE4=My Baby Didn't Come
TTITLE5=Crosscut Saw
TTITLE6=Oh Why
TTITLE7=The Slam
EXTD=
EXTT0=Screamin'
EXTT1=Talk Is Cheap
EXTT2=I Can't Hold Out
EXTT3=Lovin' Cup
EXTT4=My Baby Didn't Come
EXTT5=Crosscut Saw
EXTT6=Oh Why
EXTT7=The Slam
PLAYORDER=
